<svg width="24" height="24" viewBox="0 0 24 24" fill="none" xmlns="http://www.w3.org/2000/svg">
<path fill-rule="evenodd" clip-rule="evenodd" d="M17.6055 3.0002C18.0519 2.99718 18.4945 3.08264 18.9077 3.25164C19.3209 3.42065 19.6966 3.66985 20.0129 3.98485L20.0148 3.98676C20.33 4.30301 20.5793 4.67859 20.7484 5.09177C20.9174 5.50496 21.0029 5.94757 20.9999 6.394C20.9969 6.84044 20.9054 7.28185 20.7307 7.69271C20.5567 8.10223 20.3034 8.4733 19.9855 8.78463L9.28077 19.4893C9.19306 19.577 9.08339 19.6396 8.96323 19.6704L3.86432 20.9782C3.62732 21.0389 3.37584 20.9701 3.20282 20.7971C3.0298 20.6241 2.96094 20.3727 3.0217 20.1356L4.32873 15.0367C4.33954 14.9946 4.35426 14.9537 4.3726 14.9146C4.40577 14.8433 4.45173 14.7765 4.51049 14.7176C4.51734 14.7108 4.52431 14.7041 4.53137 14.6975L14.9046 4.32436C14.9067 4.32215 14.9089 4.31995 14.9111 4.31776C14.9133 4.31557 14.9155 4.3134 14.9177 4.31125L15.2145 4.0144C15.526 3.69653 15.8972 3.4433 16.3068 3.26925C16.7177 3.09467 17.1591 3.00322 17.6055 3.0002ZM15.4007 5.78641L5.98036 15.2067L8.79526 18.0167L18.2131 8.59885L15.4007 5.78641ZM19.1831 7.61072L16.3889 4.81653C16.5288 4.7056 16.6832 4.61371 16.8483 4.5436C17.0908 4.44054 17.3514 4.38657 17.6149 4.38478C17.8784 4.383 18.1397 4.43344 18.3836 4.53321C18.6271 4.63279 18.8484 4.77956 19.035 4.96504C19.2205 5.15146 19.3673 5.37275 19.4669 5.61617C19.5667 5.86 19.6171 6.12118 19.6153 6.38463C19.6136 6.64807 19.5596 6.90855 19.4565 7.15101C19.3863 7.31618 19.2942 7.47075 19.1831 7.61072ZM7.44909 18.6293L4.65341 19.3463L5.36938 16.5532L7.44909 18.6293Z" fill="#0A332F"/>
</svg>
